<svg xmlns="http://www.w3.org/2000/svg" xmlns:xlink="http://www.w3.org/1999/xlink" width="500" zoomAndPan="magnify" viewBox="0 0 375 374.999991" height="500" preserveAspectRatio="xMidYMid meet" version="1.0"><defs><clipPath id="d4cd3c6f46"><path d="M 0 30.839844 L 375 30.839844 L 375 344.339844 L 0 344.339844 Z M 0 30.839844 " clip-rule="nonzero"/></clipPath></defs><rect x="-37.5" width="450" fill="#ffffff" y="-37.499999" height="449.999989" fill-opacity="1"/><rect x="-37.5" width="450" fill="#ffffff" y="-37.499999" height="449.999989" fill-opacity="1"/><g clip-path="url(#d4cd3c6f46)"><path fill="#ffffff" d="M -1.316406 22.515625 L 378.398438 22.515625 L 378.398438 345.304688 L -1.316406 345.304688 Z M -1.316406 22.515625 " fill-opacity="1" fill-rule="nonzero"/></g><path fill="#669db9" d="M 40.519531 334.792969 L 39.414062 333.984375 L 39.585938 318.460938 L 39.761719 302.933594 L 69.515625 302.933594 L 69.90625 307.574219 L 69.019531 308.308594 L 68.128906 309.046875 L 57.179688 309.226562 L 46.230469 309.402344 L 46.230469 315.226562 L 54.921875 315.40625 L 63.609375 315.589844 L 64.460938 316.292969 L 65.3125 317 L 65.3125 319.972656 L 64.921875 320.996094 L 64.527344 322.019531 L 47.359375 322.019531 L 46.589844 322.945312 L 45.816406 323.875 L 46.230469 328.164062 L 57.179688 328.339844 L 68.128906 328.519531 L 68.984375 329.230469 L 69.839844 329.9375 L 69.839844 334.261719 L 68.589844 334.933594 L 67.339844 335.601562 L 41.625 335.601562 Z M 74.4375 334.710938 L 73.699219 333.824219 L 73.871094 318.394531 L 74.046875 302.964844 L 77.671875 301.691406 L 79.867188 303.074219 L 80.191406 315.617188 L 80.515625 328.164062 L 105 328.515625 L 106.710938 329.9375 L 106.710938 334.261719 L 105.460938 334.933594 L 104.210938 335.601562 L 75.175781 335.601562 Z M 109.449219 335.0625 L 108.628906 334.539062 L 108.804688 318.738281 L 108.976562 302.933594 L 114.796875 302.933594 L 114.972656 318.460938 L 115.144531 333.984375 L 112.933594 335.601562 L 111.601562 335.589844 L 110.269531 335.582031 Z M 130.824219 335.078125 L 130.027344 334.574219 L 129.675781 309.402344 L 123.886719 309.214844 L 118.101562 309.027344 L 116.414062 307.628906 L 116.4375 304.230469 L 117.476562 302.589844 L 133.28125 302.761719 L 149.082031 302.9375 L 149.082031 308.757812 L 136.792969 309.40625 L 136.621094 321.695312 L 136.453125 333.984375 L 134.28125 335.601562 L 132.949219 335.59375 L 131.617188 335.582031 Z M 152.964844 334.539062 L 151.902344 333.476562 L 152.316406 306.382812 L 154.429688 304.5 L 156.542969 302.613281 L 181.203125 302.613281 L 184.984375 306.394531 L 184.984375 334.929688 L 183.320312 335.347656 L 181.652344 335.765625 L 180.085938 335.050781 L 178.515625 334.335938 L 178.515625 324.605469 L 159.109375 324.605469 L 159.109375 334.261719 L 157.859375 334.933594 L 156.605469 335.601562 L 154.027344 335.601562 Z M 178.382812 313.445312 L 178.191406 309.402344 L 168.648438 309.226562 L 159.109375 309.046875 L 159.109375 317.488281 L 178.578125 317.488281 Z M 225.265625 335.078125 L 224.472656 334.574219 L 224.121094 309.402344 L 212.542969 309.027344 L 211.699219 308.328125 L 210.859375 307.628906 L 210.867188 305.929688 L 210.878906 304.230469 L 211.917969 302.589844 L 227.722656 302.761719 L 243.523438 302.9375 L 243.523438 308.757812 L 231.234375 309.40625 L 231.066406 321.695312 L 230.894531 333.984375 L 228.722656 335.601562 L 227.390625 335.59375 L 226.058594 335.582031 Z M 247.453125 334.585938 L 246.4375 333.570312 L 246.445312 318.898438 L 246.457031 304.230469 L 246.976562 303.40625 L 247.5 302.585938 L 262.007812 302.761719 L 276.515625 302.933594 L 276.515625 308.757812 L 265.035156 308.933594 L 253.550781 309.109375 L 253.550781 315.511719 L 271.988281 315.871094 L 271.988281 321.695312 L 262.929688 322.101562 L 253.875 322.507812 L 253.714844 322.585938 L 253.550781 322.664062 L 253.550781 328.457031 L 265.035156 328.632812 L 276.515625 328.808594 L 276.921875 334.503906 L 276.074219 335.042969 L 275.222656 335.582031 L 261.847656 335.589844 L 248.46875 335.601562 Z M 285.386719 334.871094 L 283.257812 334.257812 L 281.992188 332.179688 L 280.726562 330.105469 L 280.722656 318.902344 L 280.722656 307.703125 L 281.441406 306.289062 L 282.164062 304.875 L 283.546875 303.757812 L 284.925781 302.640625 L 312.925781 302.609375 L 313.320312 303.632812 L 313.710938 304.65625 L 313.710938 307.628906 L 312.855469 308.339844 L 311.996094 309.050781 L 287.511719 309.402344 L 287.511719 328.164062 L 311.996094 328.515625 L 312.855469 329.226562 L 313.710938 329.9375 L 313.710938 334.261719 L 312.460938 334.933594 L 311.207031 335.601562 L 287.511719 335.484375 Z M 318.722656 334.902344 L 317.59375 334.242188 L 317.59375 304.65625 L 317.984375 303.636719 L 318.378906 302.613281 L 324.0625 302.613281 L 324.070312 308.273438 L 324.082031 313.933594 L 324.605469 314.757812 L 325.128906 315.585938 L 334.785156 315.40625 L 344.4375 315.226562 L 344.761719 309.082031 L 345.085938 302.933594 L 350.90625 302.933594 L 350.90625 334.492188 L 348.710938 335.875 L 346.898438 335.238281 L 345.085938 334.605469 L 344.894531 328.816406 L 344.707031 323.03125 L 343.144531 322.039062 L 334.378906 322.027344 L 325.613281 322.019531 L 324.835938 322.792969 L 324.0625 323.570312 L 324.0625 334.816406 L 323.039062 335.210938 L 322.015625 335.601562 L 320.933594 335.582031 L 319.855469 335.5625 Z M 190.289062 324.476562 L 189.511719 323.699219 L 189.511719 319.6875 L 190.289062 318.914062 L 191.066406 318.136719 L 207.367188 318.136719 L 208.140625 318.914062 L 208.917969 319.6875 L 208.917969 323.699219 L 208.140625 324.476562 L 207.367188 325.253906 L 191.066406 325.253906 Z M 162.34375 256.449219 L 155.550781 254.328125 L 150.53125 252.210938 L 145.511719 250.089844 L 142.667969 247.785156 L 144.4375 236.546875 L 146.203125 225.3125 L 146.171875 224.339844 L 146.136719 223.371094 L 143.003906 221.242188 L 139.867188 219.117188 L 134.671875 214.289062 L 129.472656 209.460938 L 127.484375 209.460938 L 117.296875 213.019531 L 107.113281 216.578125 L 104.804688 216.578125 L 101.554688 211.945312 L 98.300781 207.316406 L 94.421875 199.703125 L 90.539062 192.09375 L 90.539062 190.804688 L 99.597656 182.894531 L 108.652344 174.988281 L 108.652344 172.652344 L 106.683594 165.152344 L 105.941406 159.007812 L 105.203125 152.863281 L 104.503906 152.136719 L 103.800781 151.414062 L 93.773438 147.671875 L 83.75 143.929688 L 82.816406 143.078125 L 81.886719 142.222656 L 82.03125 139.132812 L 82.179688 136.042969 L 83.140625 129.898438 L 84.105469 123.753906 L 85.421875 118.914062 L 86.738281 114.078125 L 87.507812 113.589844 L 88.277344 113.097656 L 100.074219 113.089844 L 111.875 113.078125 L 114.878906 107.09375 L 117.882812 101.113281 L 120.382812 97.429688 L 122.882812 93.742188 L 122.882812 91.722656 L 111.789062 72.160156 L 112.15625 70.699219 L 112.523438 69.242188 L 122.5625 60.25 L 132.265625 52.882812 L 133.746094 52.5 L 135.226562 52.121094 L 136.332031 53.070312 L 137.4375 54.023438 L 145.476562 60.632812 L 153.511719 67.242188 L 155.550781 66.625 L 161.050781 64.316406 L 166.546875 62.011719 L 170.929688 60.878906 L 175.308594 59.742188 L 175.898438 57.460938 L 176.488281 55.183594 L 178.199219 45.804688 L 179.914062 36.425781 L 180.855469 35.453125 L 181.796875 34.484375 L 208.871094 34.484375 L 209.8125 35.453125 L 210.75 36.425781 L 212.785156 47.421875 L 214.824219 58.417969 L 216.355469 59.855469 L 221.972656 61.570312 L 227.585938 63.285156 L 231.898438 65.21875 L 236.207031 67.152344 L 237.308594 67.152344 L 241.386719 63.730469 L 245.464844 60.3125 L 250.464844 56.21875 L 255.460938 52.125 L 256.933594 52.503906 L 258.402344 52.882812 L 263.253906 56.539062 L 268.105469 60.199219 L 273.441406 65.4375 L 278.78125 70.679688 L 278.78125 72.398438 L 273.28125 82.066406 L 267.785156 91.734375 L 267.785156 93.742188 L 270.285156 97.429688 L 272.785156 101.113281 L 278.777344 113.050781 L 291.230469 113.226562 L 303.679688 113.402344 L 304.550781 115.988281 L 305.425781 118.578125 L 308.457031 134.75 L 308.609375 138.496094 L 308.757812 142.242188 L 307.839844 143.109375 L 306.917969 143.972656 L 296.890625 147.6875 L 286.867188 151.398438 L 286.164062 152.132812 L 285.464844 152.863281 L 284.722656 159.007812 L 283.984375 165.152344 L 283 168.902344 L 282.015625 172.65625 L 282.015625 174.960938 L 291.070312 182.871094 L 300.125 190.785156 L 300.125 192.09375 L 296.246094 199.707031 L 292.367188 207.316406 L 289.113281 211.945312 L 285.863281 216.578125 L 284.746094 216.574219 L 283.632812 216.570312 L 273.402344 213.015625 L 263.175781 209.460938 L 261.195312 209.460938 L 250.640625 219.273438 L 247.566406 221.269531 L 244.496094 223.261719 L 244.496094 224.933594 L 244.5 226.601562 L 246.101562 235.984375 L 247.707031 245.363281 L 247.730469 248.738281 L 242.714844 251.019531 L 237.703125 253.296875 L 233.050781 254.960938 L 228.398438 256.628906 L 224.382812 257.667969 L 220.371094 258.707031 L 219.425781 257.765625 L 218.484375 256.820312 L 212.84375 247.265625 L 207.199219 237.710938 L 183.535156 237.601562 L 178.023438 246.980469 L 172.507812 256.359375 L 171.53125 257.492188 L 170.550781 258.621094 L 169.84375 258.59375 L 169.136719 258.5625 Z M 187.570312 211.988281 L 187.570312 211.28125 L 182.695312 205.46875 L 177.816406 199.652344 L 180.089844 195.589844 L 182.359375 191.527344 L 181.945312 191.117188 L 181.535156 190.703125 L 169.941406 190.703125 L 170.246094 185.433594 L 170.550781 180.160156 L 171.71875 179.308594 L 172.886719 178.453125 L 179.277344 176.328125 L 180.480469 177.53125 L 185.339844 194.617188 L 190.203125 211.707031 L 190.730469 212.234375 L 191.261719 212.761719 L 195.398438 212.570312 L 199.539062 212.375 L 207.742188 183.265625 L 208.699219 179.867188 L 209.65625 176.472656 L 212.117188 176.472656 L 215.636719 178.03125 L 219.160156 179.585938 L 219.59375 183.0625 L 220.027344 186.535156 L 219.589844 190.378906 L 214.605469 190.40625 L 209.621094 190.429688 L 208.628906 191.421875 L 210.859375 195.558594 L 213.089844 199.691406 L 211.773438 201.179688 L 210.457031 202.671875 L 206.464844 207.117188 L 202.472656 211.566406 L 203.121094 212.613281 L 205.535156 212.261719 L 207.949219 211.914062 L 211.8125 210.957031 L 215.679688 210 L 216.894531 209.347656 L 218.113281 208.695312 L 216.679688 207.261719 L 216.679688 205.582031 L 221.371094 205.578125 L 226.058594 205.578125 L 229.890625 203.265625 L 233.722656 200.957031 L 242.878906 193.371094 L 245.339844 190.414062 L 247.800781 187.460938 L 247.058594 186.257812 L 240.292969 183.164062 L 214.746094 173.125 L 214.390625 172.546875 L 214.035156 171.972656 L 216.648438 167.636719 L 219.261719 163.304688 L 221.800781 156.515625 L 224.441406 151.585938 L 224.441406 144.835938 L 223.757812 143.332031 L 223.070312 141.828125 L 223.742188 140.066406 L 224.410156 138.308594 L 226.984375 138.308594 L 228.171875 136.042969 L 227.597656 131.898438 L 227.019531 127.753906 L 226.300781 126.886719 L 225.578125 126.015625 L 217.972656 126.015625 L 217.972656 123.429688 L 224.367188 123.429688 L 224.746094 122.816406 L 225.121094 122.207031 L 223.175781 112.878906 L 219.433594 104.878906 L 217.070312 102.515625 L 214.707031 100.148438 L 209.886719 97.679688 L 206.652344 94.195312 L 204.855469 93.261719 L 203.058594 92.324219 L 195.300781 92.332031 L 187.542969 92.335938 L 185.09375 92.996094 L 182.644531 93.652344 L 179.644531 96.414062 L 176.648438 99.171875 L 173.414062 101.9375 L 170.183594 104.707031 L 168.53125 108.082031 L 166.878906 111.460938 L 165.808594 116.398438 L 164.734375 121.339844 L 165.136719 122.382812 L 165.535156 123.425781 L 173.203125 123.425781 L 173.550781 124.335938 L 173.898438 125.242188 L 173.125 126.015625 L 164.3125 126.015625 L 163.402344 127.46875 L 162.488281 128.925781 L 161.652344 136.816406 L 162.484375 137.492188 L 163.3125 138.167969 L 165.890625 138.644531 L 167.515625 142.035156 L 166.546875 144.355469 L 165.578125 146.671875 L 165.578125 150.375 L 168.875 156.742188 L 170.492188 160.945312 L 172.109375 165.152344 L 174.066406 168.625 L 176.027344 172.101562 L 174.824219 173.304688 L 146.496094 184.710938 L 144.714844 185.546875 L 142.9375 186.382812 L 142.9375 187.953125 L 147.964844 193.058594 L 152.988281 198.167969 L 162.019531 204.136719 L 166.574219 206.417969 L 171.132812 208.695312 L 175.734375 210.09375 L 180.339844 211.492188 L 183.46875 212.019531 L 186.601562 212.542969 L 187.085938 212.621094 L 187.570312 212.695312 Z M 185.683594 186.011719 L 183.691406 180.027344 L 183.691406 177.765625 L 184.175781 177.769531 L 184.660156 177.769531 L 186.632812 178.972656 L 188.609375 180.175781 L 189.382812 182.765625 L 190.160156 185.355469 L 190.160156 187.921875 L 189.449219 189.960938 L 188.738281 191.996094 L 187.679688 191.996094 Z M 200.941406 191.511719 L 200.648438 191.027344 L 199.992188 188.632812 L 199.335938 186.242188 L 201.1875 179.929688 L 205.726562 177.765625 L 206.332031 177.765625 L 206.332031 179.433594 L 202.402344 191.996094 L 201.230469 191.996094 Z M 187.789062 177.078125 L 185.097656 175.746094 L 181.867188 172.332031 L 178.640625 168.917969 L 174.78125 161.269531 L 172.75 154.433594 L 171.429688 152.578125 L 170.105469 150.722656 L 170.105469 146.042969 L 171.652344 145.335938 L 173.199219 144.632812 L 173.933594 143.015625 L 174.671875 141.398438 L 176.109375 141.929688 L 177.542969 142.460938 L 211.667969 142.875 L 213.3125 141.800781 L 214.957031 140.722656 L 215.816406 141.902344 L 216.679688 143.082031 L 216.679688 144.09375 L 220.5625 146.101562 L 220.5625 150.082031 L 219.003906 153.089844 L 217.449219 156.09375 L 214.757812 161.777344 L 212.070312 167.457031 L 208.191406 171.601562 L 204.316406 175.746094 L 201.5625 177.078125 L 198.804688 178.414062 L 194.644531 178.410156 L 190.480469 178.410156 Z M 191.097656 122.519531 L 189.125 121.660156 L 187.378906 119.582031 L 185.628906 117.507812 L 185.558594 115.777344 L 185.488281 114.050781 L 185.617188 112.433594 L 185.75 110.816406 L 186.992188 108.78125 L 188.238281 106.746094 L 190.585938 105.632812 L 192.929688 104.523438 L 198.414062 105.140625 L 200.054688 106.359375 L 201.695312 107.582031 L 202.71875 109.296875 L 203.742188 111.015625 L 203.742188 117.507812 L 201.996094 119.585938 L 200.246094 121.664062 L 198.132812 122.546875 L 196.023438 123.429688 L 194.546875 123.402344 L 193.070312 123.378906 Z M 191.097656 122.519531 " fill-opacity="1" fill-rule="nonzero"/><path fill="#000000" d="M 40.375 333.484375 L 40.058594 332.660156 L 40.410156 303.582031 L 54.515625 303.40625 L 68.625 303.234375 L 68.425781 305.671875 L 68.222656 308.109375 L 57.550781 308.28125 L 46.875 308.453125 L 46.035156 308.761719 L 45.191406 309.066406 L 45.582031 315.871094 L 54.640625 316.195312 L 63.695312 316.519531 L 63.894531 318.945312 L 64.097656 321.371094 L 47.304688 321.371094 L 46.28125 321.761719 L 45.257812 322.15625 L 45.257812 328.996094 L 46.28125 329.386719 L 47.304688 329.78125 L 68.546875 329.78125 L 68.546875 334.308594 L 40.691406 334.308594 Z M 74.660156 333.484375 L 74.34375 332.660156 L 74.519531 318.121094 L 74.691406 303.582031 L 79.21875 303.582031 L 79.398438 316.164062 L 79.574219 328.75 L 81.160156 329.757812 L 93.289062 329.769531 L 105.417969 329.777344 L 105.417969 334.308594 L 74.976562 334.308594 Z M 109.449219 318.984375 L 109.625 303.582031 L 111.703125 303.378906 L 113.785156 303.179688 L 114.152344 304.675781 L 114.515625 306.167969 L 114.335938 320.078125 L 114.152344 333.984375 L 111.714844 334.1875 L 109.277344 334.386719 Z M 130.5 321.570312 L 130.324219 308.757812 L 124.179688 308.433594 L 118.03125 308.109375 L 117.832031 305.671875 L 117.628906 303.234375 L 133.03125 303.40625 L 148.4375 303.582031 L 148.648438 305.453125 L 148.863281 307.324219 L 148.003906 307.867188 L 147.140625 308.414062 L 141.480469 308.421875 L 135.820312 308.433594 L 135.777344 314.417969 L 135.734375 320.398438 L 135.5 333.984375 L 133.085938 334.183594 L 130.675781 334.382812 Z M 153.289062 320.671875 L 153.289062 307.039062 L 157.070312 303.257812 L 180.554688 303.257812 L 184.335938 307.039062 L 184.335938 334.386719 L 181.910156 334.183594 L 179.484375 333.984375 L 179.101562 324.320312 L 178.320312 323.824219 L 177.542969 323.332031 L 168.695312 323.320312 L 159.847656 323.3125 L 157.816406 325.34375 L 157.816406 334.308594 L 153.289062 334.308594 Z M 179.027344 313.445312 L 179.214844 308.433594 L 158.601562 308.433594 L 158.207031 309.457031 L 157.816406 310.480469 L 157.816406 317.230469 L 158.609375 318.023438 L 159.398438 318.816406 L 169.121094 318.636719 L 178.839844 318.460938 Z M 224.941406 321.570312 L 224.765625 308.757812 L 215.0625 308.429688 L 213.609375 308.09375 L 212.152344 307.761719 L 212.152344 303.234375 L 227.515625 303.40625 L 242.878906 303.582031 L 243.089844 305.074219 L 243.300781 306.5625 L 242.527344 307.5 L 241.75 308.433594 L 230.292969 308.433594 L 230.117188 321.207031 L 229.941406 333.984375 L 227.53125 334.183594 L 225.117188 334.382812 Z M 247.878906 318.945312 L 248.054688 303.582031 L 275.867188 303.582031 L 276.082031 305.453125 L 276.296875 307.320312 L 275.4375 307.867188 L 274.574219 308.414062 L 263.808594 308.421875 L 253.042969 308.433594 L 252.652344 309.457031 L 252.257812 310.480469 L 252.257812 314.148438 L 252.652344 315.171875 L 253.042969 316.195312 L 261.546875 316.203125 L 270.046875 316.214844 L 270.90625 316.761719 L 271.769531 317.304688 L 271.339844 321.046875 L 262.652344 321.226562 L 253.960938 321.410156 L 253.109375 322.117188 L 252.257812 322.820312 L 252.257812 327.746094 L 253.273438 328.761719 L 254.292969 329.777344 L 276.191406 329.777344 L 276.191406 334.308594 L 247.707031 334.308594 Z M 283.507812 332.746094 L 281.691406 331.1875 L 281.480469 320.617188 L 281.273438 310.050781 L 282.984375 304.910156 L 286.21875 303.277344 L 299.359375 303.265625 L 312.496094 303.257812 L 312.292969 305.683594 L 312.09375 308.109375 L 286.867188 308.757812 L 286.6875 318.371094 L 286.507812 327.988281 L 287.25 328.882812 L 287.996094 329.777344 L 312.417969 329.777344 L 312.417969 334.308594 L 285.320312 334.308594 Z M 318.886719 318.742188 L 318.886719 303.175781 L 323.089844 303.582031 L 323.738281 315.871094 L 334.550781 316.050781 L 345.359375 316.226562 L 345.546875 309.902344 L 345.730469 303.582031 L 350.257812 303.582031 L 350.257812 333.984375 L 345.730469 333.984375 L 345.40625 327.839844 L 345.085938 321.695312 L 335.703125 321.507812 L 326.324219 321.324219 L 324.871094 321.683594 L 323.414062 322.042969 L 323.414062 334.308594 L 318.886719 334.308594 Z M 190.804688 321.695312 L 190.804688 319.429688 L 207.625 319.429688 L 207.625 323.957031 L 190.804688 323.957031 Z M 160.078125 254.863281 L 152.964844 252.441406 L 148.273438 250.261719 L 143.585938 248.082031 L 143.589844 247.371094 L 143.597656 246.65625 L 147.394531 224.257812 L 147.089844 223.492188 L 146.78125 222.722656 L 140.671875 218.691406 L 134.726562 213.398438 L 128.78125 208.109375 L 117.402344 212.082031 L 106.019531 216.050781 L 105.085938 215.277344 L 104.152344 214.5 L 101.296875 210.164062 L 98.441406 205.832031 L 95.136719 199.25 L 91.835938 192.667969 L 91.835938 190.75 L 99.757812 183.851562 L 107.683594 176.953125 L 108.835938 175.867188 L 109.988281 174.777344 L 107.449219 164.160156 L 105.910156 151.917969 L 105.179688 151.34375 L 104.449219 150.765625 L 93.539062 146.648438 L 82.628906 142.535156 L 83.503906 132.839844 L 85.394531 122.019531 L 86.429688 118.28125 L 87.46875 114.546875 L 97.203125 113.726562 L 112.523438 113.726562 L 118.875 101.109375 L 121.527344 97.230469 L 124.175781 93.347656 L 124.175781 92.832031 L 124.179688 92.316406 L 118.328125 82.011719 L 112.476562 71.703125 L 113.125 70.492188 L 113.773438 69.277344 L 118.816406 64.738281 L 123.855469 60.199219 L 128.9375 56.558594 L 134.015625 52.917969 L 134.855469 52.917969 L 143.894531 60.359375 L 152.933594 67.796875 L 154.945312 67.796875 L 160.175781 65.589844 L 165.40625 63.386719 L 170.503906 61.96875 L 175.605469 60.554688 L 176.03125 60.132812 L 176.460938 59.710938 L 178.550781 48.390625 L 180.636719 37.070312 L 181.539062 36.101562 L 182.441406 35.128906 L 208.226562 35.128906 L 209.113281 36.101562 L 209.996094 37.070312 L 213.527344 56.476562 L 214.792969 60.539062 L 219.121094 61.625 L 223.453125 62.710938 L 235.851562 67.796875 L 237.707031 67.796875 L 246.746094 60.359375 L 255.785156 52.917969 L 256.652344 52.917969 L 261.699219 56.542969 L 266.75 60.164062 L 271.847656 64.765625 L 276.941406 69.367188 L 277.554688 70.511719 L 278.164062 71.652344 L 272.289062 82.101562 L 266.417969 92.546875 L 267.105469 94.34375 L 272.277344 101.960938 L 278.175781 113.726562 L 289.960938 113.734375 L 301.742188 113.746094 L 302.488281 114.21875 L 303.234375 114.695312 L 304.257812 118.253906 L 305.285156 121.808594 L 306.585938 129.476562 L 307.890625 137.140625 L 307.890625 142.027344 L 306.273438 143.246094 L 286.21875 150.777344 L 284.757812 151.917969 L 283.21875 164.160156 L 281.96875 169.386719 L 280.722656 174.613281 L 280.722656 174.96875 L 289.777344 182.847656 L 298.832031 190.730469 L 298.832031 192.667969 L 295.53125 199.25 L 292.226562 205.832031 L 289.371094 210.164062 L 286.515625 214.5 L 285.570312 215.285156 L 284.628906 216.066406 L 273.300781 212.074219 L 261.976562 208.082031 L 260.34375 209.027344 L 252.570312 216.566406 L 244.820312 222.386719 L 244.378906 222.394531 L 243.9375 222.398438 L 243.203125 224.710938 L 247.070312 246.65625 L 247.074219 247.375 L 247.082031 248.09375 L 241.851562 250.488281 L 236.617188 252.878906 L 230.691406 254.828125 L 224.765625 256.773438 L 222.21875 256.890625 L 219.667969 257.007812 L 207.707031 236.882812 L 182.925781 236.953125 L 176.984375 246.980469 L 171.046875 257.007812 L 169.121094 257.144531 L 167.195312 257.285156 Z M 202.621094 213.328125 L 209.589844 212.667969 L 220.238281 209.308594 L 221.90625 208.128906 L 223.574219 206.945312 L 228.714844 205.171875 L 235.761719 200.492188 L 239.691406 197.050781 L 243.621094 193.613281 L 245.863281 191.027344 L 248.105469 188.4375 L 251.402344 182.941406 L 254.699219 177.441406 L 255.996094 174.851562 L 257.296875 172.265625 L 261.34375 159.234375 L 261.835938 152.621094 L 262.324219 146.011719 L 261.820312 139.730469 L 261.3125 133.453125 L 257.3125 120.515625 L 252.257812 110.8125 L 249.355469 106.933594 L 246.453125 103.050781 L 243.050781 99.554688 L 239.644531 96.0625 L 235.117188 92.671875 L 230.589844 89.285156 L 226.707031 87.21875 L 222.824219 85.15625 L 218.882812 83.660156 L 214.9375 82.160156 L 209.824219 80.96875 L 204.714844 79.773438 L 185.308594 79.765625 L 175.605469 82.226562 L 167.683594 85.1875 L 163.953125 87.207031 L 160.226562 89.222656 L 155.625 92.636719 L 151.023438 96.046875 L 147.160156 100.054688 L 143.296875 104.058594 L 140.476562 108.082031 L 137.652344 112.105469 L 135.523438 116.3125 L 133.390625 120.515625 L 131.371094 126.832031 L 129.351562 133.144531 L 128.847656 139.957031 L 128.34375 146.773438 L 128.824219 152.726562 L 129.300781 158.683594 L 130.96875 164.441406 L 132.636719 170.195312 L 134.867188 175.023438 L 137.097656 179.847656 L 139.292969 182.90625 L 141.488281 185.960938 L 141.882812 187.207031 L 142.28125 188.453125 L 146.492188 192.792969 L 150.703125 197.128906 L 154.9375 200.335938 L 159.171875 203.539062 L 170.429688 209.335938 L 175.925781 211.035156 L 181.425781 212.738281 L 191.777344 213.816406 L 193.714844 213.902344 L 195.65625 213.988281 Z M 202.621094 213.328125 " fill-opacity="1" fill-rule="nonzero"/><path fill="#000000" d="M 41.378906 319.214844 L 41.378906 304.765625 L 41.648438 304.496094 L 41.914062 304.226562 L 54.90625 304.417969 L 67.898438 304.605469 L 67.898438 307.140625 L 45.226562 307.140625 L 44.597656 308.796875 L 43.964844 310.457031 L 43.964844 316.148438 L 45.21875 316.820312 L 46.46875 317.488281 L 63.371094 317.488281 L 63.371094 320.6875 L 54.175781 320.867188 L 44.984375 321.046875 L 43.757812 325.328125 L 44.9375 330.101562 L 56.417969 330.28125 L 67.898438 330.457031 L 67.898438 333.660156 L 41.378906 333.660156 Z M 75.664062 318.78125 L 75.664062 303.90625 L 78.25 303.90625 L 78.25 328.875 L 79.027344 329.648438 L 79.800781 330.425781 L 104.773438 330.425781 L 104.773438 333.660156 L 75.664062 333.660156 Z M 110.59375 319.105469 L 110.59375 304.550781 L 113.179688 304.550781 L 113.179688 333.660156 L 110.59375 333.660156 Z M 131.367188 321.027344 L 131.34375 308.390625 L 130.570312 307.140625 L 118.355469 307.140625 L 118.355469 304.550781 L 122.238281 304.53125 L 126.117188 304.511719 L 144.878906 304.511719 L 147.464844 304.550781 L 147.464844 307.140625 L 136.082031 307.140625 L 135.304688 307.914062 L 134.527344 308.691406 L 134.527344 333.660156 L 131.390625 333.660156 Z M 153.933594 320.757812 L 153.933594 307.859375 L 155.398438 306.15625 L 156.859375 304.457031 L 168.636719 304.382812 L 180.410156 304.3125 L 181.726562 305.5 L 183.042969 306.691406 L 183.042969 333.660156 L 180.457031 333.660156 L 180.457031 324.214844 L 179.679688 323.441406 L 178.902344 322.664062 L 159.214844 322.664062 L 158.191406 323.054688 L 157.167969 323.449219 L 157.167969 333.660156 L 153.933594 333.660156 Z M 180.0625 318.40625 L 180.457031 317.382812 L 180.457031 308.589844 L 179.605469 307.886719 L 178.753906 307.179688 L 168.769531 307.214844 L 158.785156 307.253906 L 157.167969 308.589844 L 157.167969 318.566406 L 158.03125 319.429688 L 179.671875 319.429688 Z M 225.9375 320.972656 L 225.898438 308.285156 L 225.007812 307.722656 L 224.121094 307.160156 L 218.460938 307.148438 L 212.800781 307.140625 L 212.800781 304.550781 L 241.910156 304.550781 L 241.910156 307.140625 L 230.523438 307.140625 L 229.746094 307.914062 L 228.972656 308.691406 L 228.972656 333.660156 L 225.976562 333.660156 Z M 248.378906 319.105469 L 248.378906 304.550781 L 255.492188 304.480469 L 262.609375 304.40625 L 269.722656 304.40625 L 272.3125 304.480469 L 274.898438 304.550781 L 274.898438 307.140625 L 253.164062 307.140625 L 252.386719 307.914062 L 251.613281 308.691406 L 251.613281 315.9375 L 253.164062 317.488281 L 270.371094 317.488281 L 270.371094 320.6875 L 251.933594 321.046875 L 251.542969 328.59375 L 252.304688 329.511719 L 253.0625 330.425781 L 274.792969 330.425781 L 275.355469 332.042969 L 274.761719 333.660156 L 248.378906 333.660156 Z M 285.453125 333.007812 L 284.039062 332.441406 L 283.351562 331.152344 L 282.660156 329.863281 L 282.660156 307.140625 L 285.25 304.550781 L 286.382812 304.527344 L 287.511719 304.5 L 299.480469 304.414062 L 311.445312 304.328125 L 311.859375 307.140625 L 286.617188 307.140625 L 285.742188 308.5625 L 285.730469 318.765625 L 285.722656 328.972656 L 286.621094 330.425781 L 311.773438 330.425781 L 311.773438 333.660156 L 299.320312 333.621094 L 286.867188 333.578125 Z M 319.53125 319.105469 L 319.53125 304.550781 L 322.71875 304.550781 L 322.90625 310.859375 L 323.089844 317.164062 L 334 317.34375 L 344.914062 317.519531 L 346.703125 316.035156 L 346.703125 304.550781 L 349.289062 304.550781 L 349.289062 333.660156 L 346.703125 333.660156 L 346.703125 322.277344 L 345.148438 320.722656 L 322.765625 320.722656 L 322.703125 322.179688 L 322.640625 323.632812 L 322.757812 326.089844 L 322.871094 328.546875 L 322.4375 331.105469 L 322.007812 333.660156 L 319.53125 333.660156 Z M 191.453125 321.695312 L 191.453125 320.078125 L 206.976562 320.078125 L 206.976562 323.3125 L 191.453125 323.3125 Z M 161.050781 254.15625 L 153.609375 251.6875 L 149.246094 249.683594 L 144.878906 247.679688 L 144.878906 244.714844 L 146.484375 235.335938 L 148.085938 225.957031 L 148.097656 224.339844 L 148.105469 222.722656 L 142.773438 218.695312 L 137.4375 214.667969 L 130 207.519531 L 127.511719 207.519531 L 117.355469 211.078125 L 107.203125 214.636719 L 105.519531 214.636719 L 99.347656 205.355469 L 92.316406 191.707031 L 95.472656 188.839844 L 98.625 185.96875 L 110.59375 175.710938 L 110.59375 173.339844 L 109.339844 167.953125 L 108.089844 162.5625 L 107.695312 158.683594 L 107.304688 154.800781 L 107 152.808594 L 106.695312 150.820312 L 102.335938 149.019531 L 97.980469 147.222656 L 90.886719 144.675781 L 83.796875 142.125 L 83.601562 141.933594 L 83.40625 141.738281 L 85.40625 126.339844 L 88.15625 115.019531 L 100.183594 115.007812 L 112.210938 115 L 112.859375 114.523438 L 113.503906 114.046875 L 115.769531 109.25 L 118.03125 104.453125 L 121.429688 99.269531 L 124.824219 94.085938 L 124.824219 91.386719 L 120.945312 84.667969 L 117.0625 77.953125 L 117.0625 77.429688 L 113.828125 72.671875 L 113.828125 70.542969 L 124.5 60.894531 L 129.121094 57.554688 L 133.738281 54.214844 L 134.945312 54.214844 L 152.953125 69.089844 L 154.609375 69.089844 L 158.960938 67.113281 L 163.3125 65.132812 L 176.226562 61.289062 L 177.320312 60.195312 L 181.664062 37.265625 L 182.023438 36.90625 L 182.382812 36.542969 L 189.171875 36.015625 L 195.960938 35.484375 L 202.179688 36.074219 L 208.402344 36.660156 L 208.664062 36.925781 L 208.925781 37.1875 L 212.105469 53.890625 L 212.820312 57.273438 L 213.535156 60.660156 L 214.636719 61.339844 L 220.335938 62.992188 L 226.03125 64.644531 L 236.148438 69.089844 L 237.75 69.089844 L 255.6875 54.214844 L 256.996094 54.214844 L 262.875 58.652344 L 268.753906 63.09375 L 276.839844 71.039062 L 276.839844 72.207031 L 271.339844 81.878906 L 265.84375 91.550781 L 265.84375 94.148438 L 268.828125 98.601562 L 271.8125 103.050781 L 274.613281 108.628906 L 277.417969 114.207031 L 278.476562 114.613281 L 279.53125 115.019531 L 302.605469 115.019531 L 303.902344 120.679688 L 305.195312 126.339844 L 306.554688 135.394531 L 306.738281 138.617188 L 306.917969 141.835938 L 303.363281 143.214844 L 299.804688 144.59375 L 291.898438 147.660156 L 283.988281 150.722656 L 283.691406 152.761719 L 283.390625 154.800781 L 282.691406 160.371094 L 281.992188 165.9375 L 281.03125 169.617188 L 280.074219 173.300781 L 280.074219 175.609375 L 286.273438 181.054688 L 292.46875 186.5 L 295.398438 189.125 L 298.324219 191.746094 L 295.304688 197.761719 L 292.28125 203.777344 L 285.203125 214.636719 L 283.328125 214.636719 L 264.976562 208.050781 L 262.816406 207.699219 L 260.660156 207.351562 L 249.886719 217.695312 L 246.222656 220.039062 L 242.554688 222.382812 L 242.5625 224.171875 L 242.570312 225.957031 L 245.78125 244.714844 L 245.789062 246.214844 L 245.792969 247.710938 L 241.105469 249.871094 L 236.414062 252.027344 L 221.070312 256.800781 L 219.953125 255.683594 L 207.953125 235.761719 L 195.460938 235.78125 L 182.96875 235.804688 L 181.742188 237.03125 L 170.429688 256.34375 L 168.492188 256.625 Z M 212.398438 212.769531 L 217.492188 211.414062 L 222.421875 209.097656 L 227.355469 206.785156 L 229.488281 205.695312 L 231.621094 204.609375 L 235.792969 201.488281 L 239.964844 198.363281 L 247.957031 190.378906 L 251.90625 184.234375 L 255.859375 178.089844 L 257.578125 174.207031 L 259.292969 170.324219 L 261.089844 164.503906 L 262.890625 158.683594 L 262.867188 146.070312 L 262.84375 133.453125 L 260.421875 126.339844 L 257.996094 119.222656 L 255.390625 114.371094 L 252.789062 109.519531 L 249.59375 105.207031 L 246.398438 100.898438 L 242.363281 97.125 L 238.328125 93.347656 L 232.839844 89.632812 L 227.355469 85.914062 L 214.972656 80.875 L 209.84375 79.710938 L 204.714844 78.550781 L 185.308594 78.535156 L 179.808594 79.972656 L 174.3125 81.40625 L 170.105469 83.015625 L 165.902344 84.628906 L 161.34375 87.371094 L 156.785156 90.117188 L 152.226562 93.671875 L 147.667969 97.230469 L 145.925781 99.496094 L 144.183594 101.757812 L 140.984375 105.59375 L 137.789062 109.425781 L 135.167969 114.464844 L 132.546875 119.5 L 130.65625 125.238281 L 128.765625 130.972656 L 128.066406 135.367188 L 127.363281 139.757812 L 127.367188 146.957031 L 127.367188 154.15625 L 128.308594 159.007812 L 129.246094 163.859375 L 133.175781 174.453125 L 136.480469 180.976562 L 139.769531 185.824219 L 143.054688 190.671875 L 147.6875 195.277344 L 152.316406 199.886719 L 157.566406 203.382812 L 162.8125 206.875 L 166.945312 208.746094 L 171.078125 210.613281 L 180.78125 213.511719 L 187.25 214.558594 L 197.277344 214.339844 L 207.300781 214.125 Z M 212.398438 212.769531 " fill-opacity="1" fill-rule="nonzero"/></svg>